<?xml version="1.0" encoding="utf-8"?>
<!-- Generator: Adobe Illustrator 19.2.0, SVG Export Plug-In . SVG Version: 6.00 Build 0)  -->
<svg version="1.1" id="Layer_1" xmlns="http://www.w3.org/2000/svg" xmlns:xlink="http://www.w3.org/1999/xlink" x="0px" y="0px"
	 viewBox="0 0 1170 460.6" style="enable-background:new 0 0 1170 460.6;" xml:space="preserve">
<style type="text/css">
	.st0{fill:#FB5B71;}
</style>
<g>
	<path class="st0" d="M150.3,0c96.1,0,149.8,52.2,149.8,136.6v87.8c0,84.4-53.7,136.6-149.8,136.6C53.7,361.1,0,308.9,0,224.4v-87.8
		C0,52.2,53.7,0,150.3,0z"/>
	<path class="st0" d="M475.7,92.7c80,0,121,40.5,121,106.9v54.6c0,66.4-41,106.9-121,106.9c-79,0-121-40.5-121-106.9v-54.6
		C354.7,133.2,396.7,92.7,475.7,92.7z"/>
	<path class="st0" d="M776.7,92.7c76.6,0,111.7,39,111.7,105.4v52.7c0,71.7-38.5,110.3-113.7,110.3c-10.2,0-20-1.5-29.3-2.4v83.4
		c0,14.1-4.9,18.5-19,18.5h-53.2c-14.1,0-19-4.4-19-18.5V137.6c0-16.1,3.9-21.5,20.5-28.3C695.8,101,726.5,92.7,776.7,92.7z"/>
	<path class="st0" d="M1048,92.7c62.9,0,94.7,19.5,112.7,52.2c6.8,12.7,4.4,20.5-10.2,26.8l-37.1,16.1c-15.6,6.8-18.1,2-25.4-6.8
		c-6.3-7.8-15.1-13.7-35.1-13.7c-24.4,0-30.7,3.9-30.7,13.2c0,10.2,8.3,13.7,40,16.1c77.6,6.3,107.8,26.3,107.8,78.1
		c0,52.2-40,86.4-114.7,86.4c-62,0-101.5-20-116.1-58.1c-5.4-13.2-1.5-20.5,11.7-25.4l38.5-13.7c15.6-5.4,20.5-2,25.9,7.3
		c5.4,9.3,14.6,15.6,36.6,15.6c25.9,0,35.1-4.4,35.1-15.1c0-12.7-8.8-15.6-46.4-18.1c-61-3.9-101.5-21-101.5-77.6
		C939.2,125.9,975.3,92.7,1048,92.7z"/>
</g>
</svg>
